<svg width="32" height="32" viewBox="0 0 32 32" fill="none" xmlns="http://www.w3.org/2000/svg">
<path fill-rule="evenodd" clip-rule="evenodd" d="M9.5 6.5986C9.63537 6.25553 28.0866 4.73568 29.8615 4.83268C29.9358 4.83675 29.9809 4.84365 29.9941 4.85359C30.1038 5.377 28.642 10.8485 28.1809 11.3624C19.9225 18.9176 19.0439 18.9176 11.8398 24.5497C14.4933 23.8822 19.741 22.9763 24.6151 22.534C24.7437 22.5224 24.872 22.511 25 22.5C25 24 23.4367 27.6431 22.8217 28.6707C21.3282 29.0989 2 32 2 32C2 32 2.07723 31.5954 2.21888 30.9671C2.50456 29.6999 3.05231 27.5229 3.75711 25.9199C4.19638 24.5497 11.4005 19.1077 19.0439 12C14.5633 12 11.2248 12.5608 7.53488 12.8177C7.5901 12.4732 7.65553 12.1347 7.72863 11.8039C8.23707 9.50249 9.11594 7.57194 9.5 6.5986Z" fill="#D4050E"/>
<path d="M24.3152 1C24.4242 1.1062 24.6987 1.83797 24.8936 2.48078C25.013 2.87465 25.1026 3.23511 25.1059 3.39779C24.7545 3.6547 17.0233 5.19613 16.4961 5.28177C15.7933 5.28177 10.6977 4.85359 10.0827 4.68232C10.1295 4.36283 10.2075 4.03725 10.2985 3.72582C10.5487 2.86858 10.8968 2.11844 10.9612 1.89698C13.0698 2.11326 15.969 2.62707 17.199 2.71271C17.6382 2.62707 23.9638 1 24.3152 1Z" fill="#D4050E"/>
<path fill-rule="evenodd" clip-rule="evenodd" d="M9.5 5.5986C9.64104 5.24115 29.6645 3.60628 29.9941 3.85359C29.9948 3.8573 29.9955 3.861 29.9961 3.86469C30.0154 3.99212 29.9618 4.34826 29.8615 4.83268C29.5014 6.57153 28.5391 9.96316 28.1809 10.3624C19.9225 17.9176 19.0439 17.9176 11.8398 23.5497C14.5633 22.8646 19.6864 21.9228 24.6667 21.4945C24.7389 21.674 24.7099 22.0498 24.6151 22.534C24.3064 24.1113 23.2999 26.838 22.8217 27.6707C21.4218 28.072 4.35409 30.6459 2.21888 30.9671C2.07601 30.9886 2 31 2 31C2 31 2.70284 27.3177 3.75711 24.9199C4.19638 23.5497 11.4005 18.1077 19.0439 11C14.6419 11 11.3422 11.5413 7.72863 11.8039C7.66415 11.8086 7.59957 11.8132 7.53488 11.8177C7.97416 9.07735 9.06072 6.71186 9.5 5.5986Z" fill="#D4050E"/>
<path d="M24.3152 0C24.4909 0.171271 25.0972 1.96961 25.1059 2.39779C25.0783 2.41797 25.0052 2.44607 24.8936 2.48078C23.5844 2.88787 16.9818 4.20286 16.4961 4.28177C15.847 4.28177 11.4514 3.91658 10.2985 3.72582C10.203 3.71002 10.1297 3.69542 10.0827 3.68232C10.2584 2.48343 10.8734 1.1989 10.9612 0.896981C13.0698 1.11326 15.969 1.62707 17.199 1.71271C17.6382 1.62707 23.9638 0 24.3152 0Z" fill="#D4050E"/>
<path d="M29.8615 4.83268C29.9358 4.83675 29.9809 4.84365 29.9941 4.85359C30.039 4.40227 30.0495 4.16759 29.9961 3.86469C30.0154 3.99212 29.9618 4.34826 29.8615 4.83268Z" fill="#D4050E"/>
<path d="M24.8936 2.48078C25.013 2.87465 25.1026 3.23511 25.1059 3.39779V2.39779C25.0783 2.41797 25.0052 2.44607 24.8936 2.48078Z" fill="#D4050E"/>
<path d="M10.0827 4.68232C10.1295 4.36283 10.2075 4.03725 10.2985 3.72582C10.203 3.71002 10.1297 3.69542 10.0827 3.68232V4.68232Z" fill="#D4050E"/>
<path d="M7.53488 12.8177C7.5901 12.4732 7.65553 12.1347 7.72863 11.8039C7.66415 11.8086 7.59957 11.8132 7.53488 11.8177V12.8177Z" fill="#D4050E"/>
<path d="M2 32C2 32 2.07723 31.5954 2.21888 30.9671C2.07601 30.9886 2 31 2 31V32Z" fill="#D4050E"/>
<path d="M24.6151 22.534C24.7437 22.5224 24.872 22.511 25 22.5C24.9977 22.4374 24.9163 22.1141 24.6667 21.4945C24.7389 21.674 24.7099 22.0498 24.6151 22.534Z" fill="#D4050E"/>
<path fill-rule="evenodd" clip-rule="evenodd" d="M9.4677 5.5663C9.60874 5.20885 29.6645 3.60628 29.9941 3.85359C30.1038 4.377 28.642 9.84854 28.1809 10.3624C19.9225 17.9176 19.0439 17.9176 11.8398 23.5497C14.5633 22.8646 19.6864 21.9228 24.6667 21.4945C24.9302 22.5221 23.4367 26.6431 22.8217 27.6707C21.3282 28.0989 2 31 2 31C2 31 2.70284 27.3177 3.75711 24.9199C4.19638 23.5497 11.4005 18.1547 19.0439 11.047C14.5633 11.047 11.2248 11.5608 7.53488 11.8177C7.97416 9.07735 9.02842 6.67956 9.4677 5.5663Z" fill="url(#paint0_linear_86_2)"/>
<path d="M24.3152 0C24.4909 0.171271 25.0972 1.96961 25.1059 2.39779C24.7545 2.6547 17.0233 4.19613 16.4961 4.28177C15.7933 4.28177 10.6977 3.85359 10.0827 3.68232C10.2584 2.48343 10.8734 1.1989 10.9612 0.896981C13.0698 1.11326 15.969 1.62707 17.199 1.71271C17.6382 1.62707 23.9638 0 24.3152 0Z" fill="url(#paint1_linear_86_2)"/>
<defs>
<linearGradient id="paint0_linear_86_2" x1="19.3735" y1="-3.81515" x2="25.0007" y2="45.0349" gradientUnits="userSpaceOnUse">
<stop stop-color="#ED0C90"/>
<stop offset="0.801066" stop-color="white"/>
</linearGradient>
<linearGradient id="paint1_linear_86_2" x1="19.3735" y1="-3.81515" x2="25.0007" y2="45.0349" gradientUnits="userSpaceOnUse">
<stop stop-color="#ED0C90"/>
<stop offset="0.801066" stop-color="white"/>
</linearGradient>
</defs>
</svg>
