<svg width="2000" height="1000" viewBox="0 0 2000 1000" fill="none" xmlns="http://www.w3.org/2000/svg">
<g clip-path="url(#clip0_3_22)">
<path fill-rule="evenodd" clip-rule="evenodd" d="M1057.86 2.81569C1041.98 4.11942 1028.12 6.12201 1027.06 7.26554C1023.42 11.1961 1011.36 48.0515 1001.29 86.0117C995.748 106.907 990.576 125.665 989.797 127.693C988.661 130.654 991.546 130.969 1004.39 129.281C1013.2 128.121 1042.08 125.812 1068.58 124.143C1095.07 122.478 1117.35 120.519 1118.07 119.793C1119.86 118.006 1151.64 7.59975 1151.64 3.1803C1151.64 -0.904922 1105.4 -1.08447 1057.86 2.81569ZM1197.15 8.65765C1196.43 10.558 1191.66 26.4045 1186.55 43.8751C1181.43 61.3457 1176.32 77.8137 1175.2 80.4736C1173.34 84.8599 1175.35 85.3074 1196.94 85.3074C1215.24 85.3074 1220.72 84.4346 1220.72 81.5205C1220.72 78.3247 1231.65 39.4474 1240.04 12.8009L1242.43 5.20496H1220.44C1205.37 5.20496 1198.03 6.29325 1197.15 8.65765ZM1259.21 19.7063C1253.96 39.2347 1243.33 75.3222 1241.3 80.5814C1239.53 85.1444 1241.35 85.4621 1264.95 84.7246L1290.51 83.9263L1299.39 52.1616C1304.27 34.6909 1309.17 17.6015 1310.27 14.182C1312.24 8.04722 1311.94 7.96712 1287.32 7.96712H1262.37L1259.21 19.7063ZM662.495 32.1912L630.602 36.2516L614.39 94.6158C605.471 126.718 597.544 154.734 596.771 156.878C595.779 159.634 596.92 160.341 600.669 159.294C607.949 157.262 666.587 139.484 667.454 139.048C668.648 138.443 698.482 34.4037 698.506 30.7549C698.517 28.8573 697.597 27.49 696.456 27.7165C695.315 27.9458 680.034 29.9594 662.495 32.1912ZM595.434 40.2898C592.676 41.0025 577.787 43.7453 562.345 46.3859L534.268 51.1865L514.16 121.177C503.1 159.67 494.389 191.504 494.8 191.918C495.215 192.33 512.057 187.468 532.232 181.11C564.97 170.796 569.07 168.81 570.368 162.648C571.17 158.85 579.196 130.198 588.208 98.9801C597.218 67.7595 604.59 41.3477 604.59 40.2843C604.59 38.2293 603.388 38.2293 595.434 40.2898ZM445.723 72.8805C430.527 77.9601 390.321 90.9837 356.379 101.825C322.436 112.664 279.833 127.861 261.708 135.598L228.749 149.663L224.801 163.75C222.629 171.5 214.584 201.456 206.919 230.32C199.255 259.185 189.917 292.695 186.165 304.788C182.413 316.884 179.619 327.054 179.956 327.391C180.296 327.728 200.443 317.939 224.735 305.639C275.495 279.931 330.557 255.986 391.846 232.958C415.4 224.111 435.088 216.579 435.597 216.225C436.685 215.466 477.496 68.5218 477.496 65.3619C477.496 62.3456 476.62 62.5528 445.723 72.8805ZM1172.62 117.893C1165.06 119.721 1164.15 121.544 1156.91 149.29C1142.31 205.298 1121.59 270.689 1114.76 282.343C1105.23 298.612 1082.38 319.22 1065.13 327.115C1055.91 331.335 1027.1 338.05 985.981 345.566L921.332 357.379L901.558 425.052C890.683 462.272 880.897 496.294 879.814 500.655L877.844 508.588L893.866 506.701C902.68 505.666 924.65 502.351 942.692 499.338C960.734 496.324 975.968 494.335 976.551 494.915C977.131 495.498 976.236 499.904 974.562 504.707L971.514 513.441H935.71H899.905L890.313 534.848C876.393 565.914 874.957 568.419 866.057 577.114L857.984 585.006L867.207 595.491L876.429 605.973L867.151 607.354C858.285 608.675 857.514 609.768 849.698 632.214C843.633 649.626 840.984 663.542 839.439 686.076C836.381 730.737 826.691 752.16 777.912 822.128C748.692 864.041 739.972 881.122 739.972 896.45V908.769L753.096 906.954C760.315 905.954 773.058 901.477 781.416 897.002C816.261 878.341 838.859 868.886 863.637 862.602C907.255 851.542 935.843 853.979 982.746 872.753C1005.65 881.923 1004.16 882.316 1013.99 864.569C1017.41 858.393 1025.98 852.548 1046.7 842.248C1062.14 834.575 1077.43 826.437 1080.67 824.167C1087.7 819.245 1090.86 818.927 1090.86 823.148C1090.86 824.857 1094.16 833.605 1098.19 842.59L1105.53 858.928L1112.7 852.089C1123.47 841.82 1132.84 839.375 1161.43 839.375H1187.43L1211.58 817.416C1224.86 805.337 1236 795.728 1236.33 796.059C1236.66 796.391 1234.7 803.475 1231.96 811.803C1227.98 823.938 1227.72 827.119 1230.66 827.818C1232.68 828.302 1246.29 825.44 1260.89 821.46L1287.45 814.229L1300.11 820.358C1310.83 825.542 1318.14 826.586 1347.56 827.142C1366.7 827.501 1389.81 829.15 1398.92 830.807C1422.98 835.177 1455.85 834.608 1486.56 829.288C1511.66 824.935 1515.07 824.932 1539.21 829.243C1558.87 832.754 1581.86 833.851 1635.71 833.851C1699.69 833.851 1708.21 833.298 1725.35 828.048C1749.93 820.518 1788.57 800.575 1803.74 787.59C1810.5 781.804 1816.16 778.716 1816.75 780.489C1821.22 793.885 1872.93 850.424 1880.71 850.424C1883.89 850.424 1896.16 820.772 1901.85 799.324C1904.27 790.209 1908.82 775.572 1911.97 766.797C1918.38 748.948 1919.2 751.359 1899.25 729.58L1891.02 720.603H1903.54H1916.06L1920.74 703.339C1931.64 663.155 1951.44 607.94 1958.64 597.687C1962.9 591.61 1973.95 577.316 1983.2 565.922L2000 545.206L1988.19 535.544C1967.51 518.634 1939.7 491.159 1931.97 480.022L1924.51 469.247L1899.33 469.249C1885.47 469.252 1854.87 471.97 1831.32 475.29C1794 480.552 1775 481.384 1683.5 481.765C1612.67 482.06 1575.37 483.24 1568.86 485.391C1563.55 487.148 1543 488.582 1523.16 488.582H1487.12L1468.66 547.277C1458.51 579.562 1448.71 612.5 1446.88 620.474L1443.56 634.976H1429.19C1415.56 634.976 1414.73 634.561 1413.22 627.029C1412.2 621.936 1407.42 615.986 1399.9 610.456C1388.95 602.41 1386.6 601.83 1364.93 601.83C1343.88 601.83 1341.88 601.377 1343.7 596.996C1350.99 579.465 1364.46 537.748 1366.01 527.942L1367.86 516.203H1348.12H1328.38L1336 501.702C1340.2 493.728 1344.01 486.422 1344.46 485.466C1345.79 482.673 1288.37 479.591 1273.39 481.651C1259.98 483.497 1259.59 483.817 1255.32 496.669C1249.17 515.19 1242.27 521.728 1228.9 521.728H1217.95V505.155V488.582H1173.89H1129.82L1122.45 498.249C1112.97 510.665 1102.36 511.01 1079.81 499.63C1063.83 491.565 1062.26 491.336 1021.18 490.999C990.631 490.747 982.4 490.04 991.396 488.441C998.234 487.226 1013.84 486.137 1026.08 486.024C1053.83 485.77 1091.91 476.188 1115.85 463.438C1148.31 446.155 1183.63 407.676 1202.99 368.505C1211.22 351.85 1280.47 122.027 1278 119.558C1276.12 117.677 1179.82 116.155 1172.62 117.893ZM891.932 143.194C805.218 156.11 680.075 182.897 672.753 190.106C670.717 192.114 635.313 312.26 636.3 313.815C636.521 314.16 649.056 309.992 664.161 304.553C686.397 296.546 793.451 267.609 800.839 267.609C801.905 267.609 800.839 274.584 798.466 283.105C795.57 293.505 792.282 299.396 788.475 301.012C785.353 302.338 766.634 307.18 746.879 311.771C727.125 316.362 692.638 325.28 670.245 331.589L629.525 343.063L623.941 357.982C617.763 374.491 598.547 447.553 600.001 449.006C600.506 449.511 608.273 447.368 617.26 444.238C641.657 435.745 749.15 405.684 750.455 406.99C752.402 408.935 742.619 435.521 738.787 438.7C736.784 440.363 716.026 447.202 692.66 453.897C640.695 468.791 587.965 484.897 586.83 486.22C586.368 486.759 580.108 508.331 572.919 534.157C565.727 559.983 556.869 591.588 553.23 604.388C549.594 617.188 547.036 628.076 547.544 628.584C548.58 629.62 673.195 582.981 711.252 567.314C746.219 552.918 777.39 536.779 796.741 523.051C817.925 508.025 844.142 480.011 853.851 462.026C858.153 454.058 877.965 390.423 900.256 312.981C938.321 180.734 947.508 149.63 951.387 139.86C953.79 133.805 955.669 133.7 891.932 143.194ZM1012.88 154.764C980.508 158.469 979.077 159.386 973.949 179.696C971.52 189.308 963.264 218.034 955.6 243.532C947.936 269.029 941.664 290.309 941.664 290.823C941.664 291.336 947.568 290.646 954.788 289.292C962.007 287.936 991.534 283.635 1020.41 279.733C1049.28 275.83 1073.26 272.291 1073.69 271.866C1074.98 270.604 1107.44 157.8 1107.44 154.571C1107.44 150.978 1044.84 151.107 1012.88 154.764ZM1302.87 160.308C1299.89 162.576 1293.71 179.138 1287.05 202.699C1281.03 223.967 1276.08 242.3 1276.04 243.441C1276.01 244.581 1305.81 245.512 1342.29 245.512C1414.98 245.512 1411.35 244.601 1406.77 261.71L1405.02 268.242L1337.36 267.234L1269.69 266.228L1262.24 293.85C1258.14 309.042 1253.91 324.192 1252.82 327.515L1250.85 333.559L1304.16 333.147C1333.49 332.921 1362.75 333.727 1369.19 334.937C1379.63 336.898 1380.6 337.716 1378.08 342.425C1370.84 355.938 1365.11 356.99 1302.57 356.277L1243.99 355.609L1230.97 403.761C1223.81 430.245 1217.95 453.458 1217.95 455.345C1217.95 458.013 1232.48 458.494 1283.57 457.513C1339.32 456.441 1352.52 455.359 1371.3 450.32C1412.88 439.164 1447.91 417.732 1462.61 394.453C1474.63 375.414 1530.95 178.737 1525.77 173.884C1524.39 172.589 1502.12 168.796 1476.29 165.457C1416.83 157.772 1310.34 154.613 1302.87 160.308ZM588.012 208.541C562.939 215.104 529.45 224.572 513.591 229.583L484.757 238.695L475.885 269.035C471.006 285.721 456.219 336.663 443.023 382.239C429.831 427.814 416.707 470.41 413.864 476.892C405.092 496.879 385.373 512.709 330.794 543.576C302.828 559.389 258.398 584.555 232.059 599.499C205.72 614.442 162.205 638.625 135.357 653.236C108.51 667.851 84.4593 681.839 81.9091 684.322C79.359 686.805 72.1257 708.104 65.8401 731.651C50.4479 789.289 26.7367 875.377 11.5877 928.62C4.75504 952.637 -0.447509 973.411 0.0304731 974.781C0.505693 976.154 10.2201 970.92 21.617 963.15C47.6519 945.4 168.457 859.727 194.299 840.684C204.936 832.848 246.144 802.702 285.875 773.697C421.227 674.878 465.049 641.235 483.191 622.217C523.123 580.354 535.313 553.768 568.545 436.101C582.487 386.727 603.192 313.55 614.556 273.482C625.917 233.414 634.849 199.727 634.407 198.622C633.962 197.514 613.086 201.981 588.012 208.541ZM1614.83 227.79C1591.48 233.442 1561.58 250.128 1544.86 266.847C1518.86 292.842 1497.15 348.593 1501.01 379.477C1505.6 416.202 1518.76 435.396 1544.49 442.874C1561.09 447.699 1569.24 446.859 1585.69 438.631C1610.88 426.024 1641.08 378.526 1661.49 319.4C1667.13 303.067 1673.03 289.707 1674.6 289.707C1679.78 289.707 1695.87 303.656 1700.08 311.809C1714.64 339.942 1691.07 382.195 1650 401.618C1641.83 405.482 1635.15 409.104 1635.15 409.67C1635.15 411.813 1660.67 470.713 1662.38 472.512C1663.36 473.547 1673.03 470.271 1683.87 465.236C1768.34 425.991 1802.91 357.995 1772.34 291.242C1760.01 264.303 1726.62 238.397 1690.6 227.821C1672.26 222.437 1637.01 222.423 1614.83 227.79ZM365.582 293.582C301.281 318.113 267.311 332.669 209.702 360.382C165.415 381.686 165.247 381.802 162.274 393.05C160.633 399.256 153.253 424.845 145.873 449.912C127.558 512.126 109.668 580.164 110.624 583.978C111.074 585.779 123.817 580.114 140.422 570.734C156.378 561.721 214.291 532.177 269.121 505.08L368.806 455.814L380.593 414.885C397.535 356.037 419.503 275.004 418.724 274.225C418.359 273.86 394.443 282.569 365.582 293.582ZM1614.32 295.922C1606.64 321.516 1577.72 380.858 1572.94 380.858C1569.13 380.858 1563.32 362.512 1563.32 350.524C1563.32 327.156 1575.92 305.915 1596.12 295.248C1610.29 287.762 1616.7 288 1614.32 295.922ZM1924.46 510.088C1933.63 521.918 1946.85 535.9 1953.83 541.162C1960.82 546.424 1966.57 552.316 1966.62 554.255C1966.77 560.505 1942.06 582.644 1927.23 589.547C1917.78 593.944 1907.83 596.261 1898.32 596.278C1884.05 596.306 1883.81 596.441 1883.81 604.592V612.879H1906.21C1922.97 612.879 1928.29 613.749 1927.34 616.331C1926.64 618.232 1920.12 637.807 1912.85 659.835C1905.58 681.863 1899.28 700.312 1898.84 700.828C1898.4 701.348 1889.08 701.69 1878.13 701.585C1867.17 701.483 1857.14 702.06 1855.83 702.864C1851.85 705.328 1864.3 726.271 1878.95 741.758C1894.78 758.494 1894.69 756.848 1881.97 798.711C1877.87 812.212 1873.28 822.526 1871.61 821.982C1861.89 818.822 1830.89 770.462 1822.07 744.7C1820.65 740.551 1818.79 741.551 1810.11 751.166C1798.07 764.488 1772.15 783.372 1752.58 793.093C1737.2 800.727 1718.25 807.362 1716.58 805.696C1715.99 805.1 1718.61 794.824 1722.41 782.862C1731.55 754.083 1730.58 750.92 1716.34 763.123L1704.98 772.868L1700.34 761.237C1694.81 747.354 1693.88 748.522 1684.93 780.679L1678.59 803.467H1656.58C1640.11 803.467 1634.89 802.597 1635.87 800.015C1646.04 773.147 1717.63 558.55 1730.72 515.692L1735.51 499.992L1768.91 499.752C1787.28 499.619 1806.97 498.426 1812.67 497.1C1818.37 495.774 1823.03 495.581 1823.03 496.675C1823.03 497.769 1820 507.583 1816.29 518.482C1812.58 529.382 1810.59 538.3 1811.87 538.3C1816.69 538.3 1847.57 513.03 1857.38 501.053L1867.61 488.582H1887.7H1907.79L1924.46 510.088ZM1719.54 508.607C1718.6 513.546 1711.36 538.381 1703.44 563.795L1689.03 610.009L1590.95 610.128C1537 610.194 1487.93 611.393 1481.89 612.793C1475.85 614.191 1470.64 615.063 1470.31 614.732C1469.98 614.401 1475.23 597.469 1481.97 577.109C1488.71 556.746 1496.21 533.028 1498.64 524.399L1503.04 508.712L1596.03 506.878C1647.18 505.87 1695.25 503.992 1702.84 502.705C1710.44 501.42 1717.69 500.202 1718.95 500C1720.21 499.796 1720.48 503.669 1719.54 508.607ZM1045.54 521.683C1044.53 529.304 1044.68 535.5 1045.87 535.45C1047.06 535.403 1061.09 533.577 1077.05 531.395C1093 529.213 1107.48 527.387 1109.21 527.34C1111.28 527.282 1110.18 534.185 1106.03 547.277L1099.69 567.303L1075.89 568.96C1062.8 569.869 1051.45 571.253 1050.67 572.035C1048.66 574.046 1075.92 585.42 1087.08 587.232C1097.92 588.991 1098.51 590.77 1090.58 597.944C1085.29 602.73 1077.05 615.945 1077.05 619.646C1077.05 620.483 1080.78 621.165 1085.34 621.165C1095.18 621.165 1095.17 621.099 1087.99 644.353L1082.35 662.597H1068.92H1055.5L1029.17 743.39C1014.69 787.825 1000.82 831.246 998.356 839.881L993.875 855.578L976.927 847.568C952.403 835.972 934.027 832.956 897.458 834.522C860.302 836.113 837.212 842.831 794.589 864.447L767.701 878.084L786.132 849.753C818.983 799.255 826.407 790.811 841.227 787.079C872.464 779.215 905.448 780.45 955.89 791.372C962.419 792.786 963.427 791.955 965.215 783.709C966.317 778.624 975.148 750.268 984.834 720.696C994.521 691.125 1002.45 665.956 1002.45 664.763C1002.45 663.572 970.611 662.597 931.698 662.597C876.261 662.597 861.225 661.849 862.222 659.145C862.924 657.247 865.626 649.22 868.229 641.307L872.959 626.924L892.153 626.115L911.349 625.308L900.348 610.116C886.881 591.519 886.503 588.019 897.966 588.019C902.807 588.019 914.076 585.967 923.014 583.462C942.761 577.924 939.509 574.311 914.726 574.25C905.23 574.228 897.477 573.278 897.505 572.137C897.529 570.996 900.505 561.986 904.116 552.111L910.681 534.157L937.915 533.679C952.893 533.414 970.185 533.105 976.341 532.989C986.688 532.793 987.965 531.892 993.272 521.037L999.014 509.298L1023.19 508.563L1047.38 507.826L1045.54 521.683ZM1182.04 508.756C1182.04 509.215 1177.77 522.25 1172.56 537.718C1167.35 553.183 1163.93 566.168 1164.96 566.571C1166 566.974 1176.46 567.303 1188.22 567.303C1213.05 567.303 1212.46 564.654 1195.73 600.971C1179.69 635.785 1178.37 649.253 1192.47 634.255C1198.4 627.943 1210.1 597.83 1220.9 561.088L1226.78 541.063H1240.33C1257.33 541.063 1257.33 540.963 1242.71 586.983C1229.79 627.681 1229.7 639.379 1242.53 611.97C1249.99 596.046 1259.49 566.223 1272.18 518.965L1274.78 509.298L1293.34 508.48C1303.54 508.033 1311.89 508.149 1311.89 508.74C1311.89 509.331 1305.58 527.721 1297.86 549.609C1286.01 583.232 1256.64 676.604 1256.64 680.662C1256.64 681.361 1262.23 681.932 1269.07 681.932C1277.38 681.932 1281.5 683.115 1281.5 685.496C1281.5 692.034 1273.12 721.763 1265.94 740.736C1258.89 759.339 1258.68 759.565 1239.09 769.424C1218.65 779.71 1190.4 799.898 1184.2 808.657C1181.35 812.69 1175.25 814.018 1153.03 815.447C1137.83 816.422 1122.2 817.958 1118.29 818.858C1111.49 820.424 1110.92 819.582 1105.1 799.553L1099.01 778.611L1079.22 793.689C1058.85 809.204 1020.25 830.467 1017.48 827.7C1016.62 826.841 1021.38 808.964 1028.05 787.974L1040.19 749.807L1059.68 741.725L1079.17 733.64L1079.11 714.001C1079.05 696.989 1080.78 689.998 1092.03 661.713C1102.9 634.379 1105.02 626.09 1105.02 610.801C1105.02 590.657 1109.73 576.507 1120.01 565.778C1123.73 561.9 1130.57 548.299 1135.22 535.555C1139.88 522.81 1144.31 511.378 1145.06 510.149C1146.32 508.127 1182.04 506.779 1182.04 508.756ZM1573.79 533.931C1560.56 535.701 1548.98 537.908 1548.05 538.831C1544.57 542.306 1567.03 547.079 1586.01 546.902C1609.54 546.681 1648.14 541.703 1655.07 537.994C1666.12 532.083 1659.07 530.025 1628.94 530.362C1611.84 530.553 1587.03 532.157 1573.79 533.931ZM1872.76 546.808L1857.57 560.337L1884.69 560.367L1911.82 560.398L1906.38 552.802C1903.38 548.625 1898.01 542.524 1894.45 539.242L1887.96 533.282L1872.76 546.808ZM1768.57 541.764C1760.33 550.774 1755 562.42 1749.89 582.616C1747.41 592.425 1744.64 602.924 1743.74 605.951C1742.28 610.862 1742.62 611.033 1746.81 607.553C1755.14 600.642 1764.53 581.666 1770.6 559.478C1773.86 547.578 1776.01 537.328 1775.38 536.701C1774.75 536.074 1771.69 538.353 1768.57 541.764ZM1339.52 541.916C1339.52 542.383 1335.71 553.2 1331.06 565.95C1326.4 578.7 1319.04 604.109 1314.69 622.411C1303.8 668.238 1297.51 690.219 1295.31 690.219C1292.3 690.219 1286.9 676.505 1284.1 661.749C1280.57 643.124 1284.66 619.339 1298.79 576.28L1310.35 541.063H1324.94C1332.96 541.063 1339.52 541.447 1339.52 541.916ZM1536.74 572.695C1535.89 574.902 1535.81 577.697 1536.56 578.91C1537.3 580.122 1561.66 580.752 1590.68 580.307C1640.95 579.539 1643.44 579.247 1643.44 574.092C1643.44 568.913 1641.23 568.684 1590.86 568.684C1547.44 568.684 1538.01 569.383 1536.74 572.695ZM970.829 606.059L940.589 626.689H995.005C1024.93 626.689 1049.42 626.2 1049.42 625.607C1049.42 624.369 1003.23 585.213 1001.92 585.343C1001.45 585.39 987.459 594.712 970.829 606.059ZM1791.65 590.091C1790.9 592.748 1789.47 598.963 1788.48 603.902L1786.67 612.879H1813.48H1840.28L1836.2 606.664C1833.95 603.244 1824.16 597.126 1814.45 593.063C1792.94 584.072 1793.33 584.125 1791.65 590.091ZM1146.28 616.074C1138.08 630.255 1126.13 664.462 1122.3 684.695L1120.47 694.362L1126.52 686.849C1138.94 671.439 1161.45 607.954 1156.32 602.822C1155.49 601.993 1150.97 607.956 1146.28 616.074ZM1678 623.237C1676.93 625.894 1663.04 667.196 1647.13 715.017C1631.22 762.839 1616.77 803.696 1615.01 805.812C1611.46 810.096 1576.72 809.204 1532.55 803.694C1513.44 801.31 1504.09 801.531 1485.58 804.804C1472.87 807.05 1450.22 808.911 1435.24 808.942C1410.38 808.986 1408.17 808.569 1409.97 804.158C1425.78 765.289 1449.4 695.925 1461.93 651.549L1468.56 628.07L1491.76 625.877C1504.53 624.67 1551.02 622.731 1595.09 621.568C1639.16 620.405 1676.28 619.218 1677.58 618.928C1678.88 618.64 1679.07 620.579 1678 623.237ZM1771.79 625.184C1765.81 631.164 1765.02 634.338 1765.1 652.115C1765.18 670.431 1765.55 671.776 1769.24 666.906C1774.91 659.407 1784.35 633.365 1784.35 625.203C1784.35 616.58 1780.4 616.574 1771.79 625.184ZM1371.12 628.761C1370.2 632.937 1368.96 637.951 1368.36 639.898C1367.51 642.613 1370.47 643.014 1381.02 641.613C1388.59 640.611 1394.78 640.414 1394.78 641.177C1394.78 641.942 1392.92 647.853 1390.64 654.311C1385.31 669.398 1385.14 668.964 1394.64 664.05C1405.06 658.661 1447.28 658.051 1447.26 663.288C1447.25 665.188 1446.02 671.149 1444.52 676.535C1442.4 684.161 1439.66 687.103 1432.11 689.832C1424.06 692.741 1408.59 707.869 1408.59 712.83C1408.59 713.587 1413.57 715.694 1419.65 717.515C1432.1 721.246 1432.27 721.683 1426.58 735.319C1423.56 742.529 1419.28 746.586 1410.69 750.387C1399.44 755.362 1398.65 756.524 1392.71 776.702C1384.36 805.058 1380.56 807.464 1343.1 808.069C1322.99 808.395 1314.67 807.586 1314.7 805.307C1314.74 801.865 1321.99 769.846 1324.8 760.654C1326 756.723 1322.9 758.436 1314.04 766.584C1297.79 781.53 1282.91 791.222 1268.38 796.332C1254.39 801.249 1254.21 800.655 1262.4 776.415C1268.27 759.049 1275.14 750.18 1293.41 736.361C1310.79 723.218 1322.97 691.887 1315.75 678.875C1309.64 667.843 1311.24 662.89 1327.78 641.804L1343.67 621.543L1358.22 621.353C1372.7 621.165 1372.77 621.209 1371.12 628.761ZM1177.04 652.093C1173.95 657.112 1168.78 667.926 1165.56 676.124C1162.33 684.324 1154.15 701.533 1147.38 714.368C1139.24 729.801 1135.07 741.164 1135.07 747.912C1135.07 753.525 1131.3 769.733 1126.7 783.933C1122.09 798.131 1118.72 810.146 1119.21 810.63C1119.69 811.113 1128.9 801.873 1139.68 790.096C1162.15 765.532 1183.12 752.82 1210.12 747.401L1227.62 743.887L1236.24 719.125C1240.97 705.505 1245.69 690.509 1246.73 685.802L1248.6 677.242L1225.02 675.43L1201.43 673.618L1184.43 686.128C1175.08 693.009 1166.9 698.102 1166.24 697.447C1165.59 696.793 1166.91 692.663 1169.18 688.269C1174.78 677.444 1185.37 645.671 1183.87 644.177C1183.21 643.514 1180.14 647.077 1177.04 652.093ZM1869.14 649.212C1863.2 652.538 1863.09 661.476 1868.97 663.73C1874.55 665.873 1881.05 660.785 1881.05 654.269C1881.05 648.187 1875.32 645.754 1869.14 649.212ZM1810.11 655.971C1807.94 661.622 1814.74 666.036 1819.52 662.073C1822.22 659.835 1822.33 658.17 1819.96 655.325C1815.81 650.314 1812.19 650.552 1810.11 655.971ZM1723.15 665.359C1716.81 675.118 1709.18 699.961 1710.24 707.419C1711.05 713.109 1711.7 712.73 1717.22 703.4C1725.02 690.213 1729.9 673.892 1728.64 665.238L1727.64 658.454L1723.15 665.359ZM1521.18 665.58C1507.16 673.745 1527.39 677.389 1572.22 674.767C1601.41 673.06 1604.76 672.334 1604.76 667.729C1604.76 662.965 1601.95 662.603 1565.39 662.68C1543.74 662.727 1523.84 664.031 1521.18 665.58ZM1369.77 675.671L1354.43 676.651L1347.22 698.627L1340.02 720.603H1357.38H1374.74L1382.95 697.124C1387.53 684.043 1389.82 673.878 1388.14 674.168C1386.47 674.455 1378.21 675.132 1369.77 675.671ZM981.693 685.385C980.709 688.805 974.164 709.211 967.146 730.737L954.387 769.874L895.441 769.562C843.263 769.283 836.699 768.755 838.276 764.952C839.254 762.587 845.927 743.252 853.099 721.984L866.146 683.313L888.017 681.747C900.046 680.888 926.449 679.955 946.684 679.676L983.481 679.17L981.693 685.385ZM1219.7 704.72C1218.78 708.14 1218.01 714.07 1217.99 717.898C1217.96 724.215 1216.4 725.157 1201.32 728.025C1192.17 729.762 1176.63 734.952 1166.78 739.559C1156.94 744.164 1148.88 746.945 1148.88 745.738C1148.88 744.528 1156.07 736.689 1164.85 728.315C1180.47 713.418 1192.98 705.314 1206.89 701.085C1219.16 697.351 1221.49 698.011 1219.7 704.72ZM1756.05 707.482C1750.98 715.216 1737.38 741.94 1737.38 744.15C1737.38 747.846 1770.05 727.958 1781.59 717.238C1793.97 705.734 1793.99 705.681 1787.11 703.753C1772.18 699.569 1760.3 700.994 1756.05 707.482ZM1504.38 711.396C1503.36 712.407 1502.53 714.893 1502.53 716.921C1502.53 719.835 1511.74 720.603 1546.74 720.603C1589.1 720.603 1590.95 720.373 1590.95 715.078C1590.95 709.794 1589.1 709.554 1548.58 709.554C1525.28 709.554 1505.39 710.383 1504.38 711.396ZM896.369 723.613C890.531 733.491 892.205 736.035 906.244 738.612C916.008 740.407 916.635 740.037 922.13 729.27C925.274 723.105 927.849 717.39 927.849 716.57C927.849 715.75 921.901 715.078 914.632 715.078C902.787 715.078 900.886 715.968 896.369 723.613ZM1352.24 758.14C1350.19 763.496 1352.39 767.559 1357.35 767.559C1362.39 767.559 1364.65 760.643 1360.86 756.848C1356.61 752.602 1354.23 752.958 1352.24 758.14ZM1508.57 755.803C1491.3 756.621 1488.49 757.444 1489.26 761.469C1490.03 765.49 1494.41 766.291 1519.21 766.957C1553.41 767.871 1569.81 765.186 1571.1 758.461C1572.06 753.472 1564.54 753.152 1508.57 755.803Z" fill="black"/>
</g>
<defs>
<clipPath id="clip0_3_22">
<rect width="2000" height="1000" fill="white"/>
</clipPath>
</defs>
</svg>
