<svg width="2000" height="1000" viewBox="0 0 2000 1000" fill="none" xmlns="http://www.w3.org/2000/svg">
<path fill-rule="evenodd" clip-rule="evenodd" d="M732.375 177.512C740.439 169.582 878.264 140.12 973.766 125.914C1027.67 117.896 1038.96 116.103 1040.1 118.718C1040.44 119.509 1039.86 120.702 1039.25 122.248C1034.97 132.993 1024.86 167.204 982.934 312.656C958.384 397.832 936.563 467.821 931.825 476.586C921.133 496.366 892.258 527.178 868.928 543.704C847.616 558.803 813.286 576.554 774.775 592.388C732.862 609.62 595.618 660.916 594.477 659.777C593.917 659.218 596.735 647.242 600.74 633.164C604.747 619.086 614.503 584.325 622.423 555.92C634.029 514.285 646.15 472.823 658.273 431.354C669.734 392.153 681.196 352.944 692.227 313.574C692.227 313.574 730.133 179.72 732.375 177.512ZM869.764 264.009C863.098 265.673 781.426 285.449 740.356 297.813L682.536 488.738C703.246 482.474 728.856 474.928 754.3 467.645C780.033 460.281 802.895 452.759 805.101 450.93C805.547 450.561 806.773 449.886 808.428 448.974C813.514 446.173 822.656 441.139 825.71 435.862C836.724 423.489 864.257 308.003 864.257 308.003C867.568 295.879 869.764 287.381 872.517 272.258C873.149 269.105 873.894 265.384 873.894 264.009C873.894 262.634 871.855 263.487 869.764 264.009Z" fill="black"/>
<path fill-rule="evenodd" clip-rule="evenodd" d="M1770.1 217.591C1744.38 223.807 1711.45 242.159 1693.04 260.548C1664.4 289.138 1640.49 350.457 1644.74 384.425C1649.79 424.818 1664.29 445.929 1692.63 454.153C1710.91 459.46 1719.89 458.536 1738 449.486C1754.75 441.119 1773.5 418.777 1790.68 388.083C1806.55 423.935 1822.17 429.595 1866.34 463.214C1876.81 471.183 1888.93 472.355 1890.02 471.216C1891.9 469.238 1920 404.456 1920 402.098C1920 401.476 1912.64 397.493 1903.65 393.243C1860.09 372.671 1836.11 340.228 1848.58 309.378L1872.15 229.638C1872.15 229.638 1877.49 224.645 1853.54 217.624C1833.35 211.703 1794.53 211.688 1770.1 217.591ZM1723.96 385.944C1729.23 385.944 1776.19 302.524 1784.65 274.374C1787.27 265.661 1763.69 272.274 1748.08 280.507C1725.84 292.239 1713.36 326.879 1713.36 352.581C1713.36 365.766 1719.77 385.944 1723.96 385.944Z" fill="black"/>
<path fill-rule="evenodd" clip-rule="evenodd" d="M1408.92 191.362C1416.26 165.448 1423.07 147.232 1426.34 144.738C1434.58 138.473 1551.86 141.949 1617.34 150.401C1645.79 154.073 1670.32 158.245 1671.84 159.669C1677.55 165.007 1615.52 381.324 1602.27 402.265C1586.08 427.869 1547.5 451.441 1501.71 463.711C1490.69 466.664 1481.41 468.381 1465.86 469.52L1538.85 263.45C1540.21 258.4 1545.01 248.642 1542.61 243.658C1540.07 238.406 1526.6 238.415 1481.3 238.445C1477.66 238.448 1473.82 238.45 1469.76 238.45C1452.09 238.45 1435.84 238.252 1423.19 237.924L1388.77 359.852L1358.48 472.122C1339.3 471.997 1332.83 471.104 1332.83 469.237C1332.83 467.162 1339.28 441.631 1347.16 412.503L1361.5 359.542C1371.75 326.989 1380.91 294.174 1389.81 261.235C1395.79 237.818 1402.34 214.623 1408.92 191.362Z" fill="black"/>
<path fill-rule="evenodd" clip-rule="evenodd" d="M1087.28 114.364C1089.49 108.625 1403.76 82.8968 1408.92 86.8672C1410.64 95.2703 1387.74 183.113 1380.51 191.362C1251.1 312.656 1237.34 312.656 1124.45 403.077C1167.13 392.079 1247.4 376.958 1325.44 370.082C1329.57 386.58 1306.17 452.739 1296.53 469.237C1273.13 476.112 970.261 522.687 970.261 522.687C970.261 522.687 981.275 463.57 997.795 425.075C1004.68 403.077 1117.57 316.463 1237.34 202.353C1167.13 202.353 1114.81 210.602 1056.99 214.726C1063.88 170.732 1080.4 132.237 1087.28 114.364Z" fill="black"/>
<path d="M1319.94 25C1322.69 27.7497 1332.19 56.621 1332.33 63.4952C1326.82 67.6196 1205.67 92.3665 1197.41 93.7414C1186.4 93.7414 1106.55 86.8672 1096.92 84.1176C1099.67 64.87 1109.31 44.2476 1110.68 39.4005C1143.72 42.8728 1189.15 51.1217 1208.43 52.4965C1215.31 51.1217 1314.43 25 1319.94 25Z" fill="black"/>
<path d="M85.0587 959.883C86.4354 966.757 548.999 669.794 554.505 664.295C560.012 658.795 601.312 525.437 609.094 495.191C593.052 504.815 360.394 651.921 333.067 668.697C346.627 653.296 448.499 495.191 661.886 198.228C689.419 86.8672 689.419 52.4965 689.419 52.4965C689.419 52.4965 156.467 221.088 140.126 237.842C123.784 254.596 116.722 404.452 115.346 411.326C113.969 418.201 420.968 288.967 448.499 277.747C431.981 305.465 148.126 741.285 115.346 783.905C106.891 804.18 83.682 953.008 85.0587 959.883Z" fill="black"/>
<path d="M214.466 93.7415C219.973 86.8674 360.394 73.119 372.784 67.096C372.784 67.096 495.308 26.3748 498.987 26.3748C502.666 26.3748 501.74 95.1161 498.987 97.8658C496.234 100.616 372.784 141.337 372.784 141.337C283.3 156.983 221.35 167.982 214.466 167.982C207.583 167.982 208.96 100.616 214.466 93.7415Z" fill="black"/>
<path fill-rule="evenodd" clip-rule="evenodd" d="M946.278 528.253C946.278 528.253 943.764 533.157 942.09 537.961L939.042 546.694H867.433L857.841 568.101C843.921 599.167 842.484 601.672 833.585 610.368L825.512 618.259L843.957 639.227L834.679 640.608C825.813 641.928 825.042 643.022 817.226 665.467C811.161 682.88 808.512 696.795 806.967 719.329C803.909 763.99 794.219 785.413 745.44 855.381C716.22 897.294 707.5 914.376 707.5 929.703V942.022L720.624 940.207C727.843 939.207 740.586 934.73 748.944 930.255C783.789 911.594 806.387 902.139 831.165 895.855C874.783 884.796 903.371 887.232 950.274 906.006C951.275 906.407 952.23 906.791 953.142 907.158C963.298 911.244 968.031 913.148 971.474 911.788C974.48 910.6 976.503 906.925 980.291 900.043C980.68 899.337 981.088 898.597 981.517 897.822C984.937 891.646 993.505 885.801 1014.23 875.501C1029.67 867.828 1044.96 859.69 1048.2 857.42C1055.23 852.498 1058.39 852.18 1058.39 856.401C1058.39 858.111 1061.69 866.858 1065.72 875.844L1073.05 892.182L1080.23 885.343C1091 875.073 1100.37 872.628 1128.96 872.628H1154.96L1179.11 850.669C1192.39 838.59 1203.53 828.981 1203.86 829.312C1204.19 829.644 1202.23 836.729 1199.49 845.057C1195.51 857.191 1195.25 860.373 1198.19 861.071C1200.21 861.555 1213.81 858.693 1228.42 854.713L1254.98 847.482L1267.64 853.611C1278.36 858.796 1285.67 859.84 1315.09 860.395C1334.22 860.754 1357.34 862.403 1366.45 864.06C1390.5 868.43 1423.38 867.861 1454.08 862.541C1479.19 858.188 1482.6 858.185 1506.74 862.497C1526.4 866.007 1549.38 867.104 1603.24 867.104C1667.21 867.104 1675.73 866.552 1692.88 861.301C1717.45 853.771 1756.1 833.828 1771.27 820.844C1778.03 815.057 1783.69 811.969 1784.28 813.742C1788.75 827.138 1840.45 883.677 1848.24 883.677C1851.42 883.677 1863.69 854.025 1869.38 832.577C1871.8 823.462 1876.35 808.825 1879.5 800.05C1879.86 799.044 1880.2 798.103 1880.53 797.218L1880.53 797.2L1880.55 797.159L1880.55 797.156C1882.64 791.43 1883.86 788.07 1883.48 784.904C1882.94 780.406 1879.16 776.298 1870.01 766.358L1869.9 766.239L1868.47 764.682C1867.92 764.085 1867.36 763.469 1866.77 762.833L1858.55 753.856H1883.59L1888.27 736.592C1899.17 696.408 1918.97 641.193 1926.16 630.94C1930.43 624.863 1941.48 610.569 1950.72 599.175L1967.53 578.459L1955.71 568.797C1935.04 551.887 1907.22 524.412 1899.5 513.275L1892.03 502.5L1866.85 502.503C1853 502.506 1822.4 505.223 1798.85 508.544C1761.53 513.805 1742.53 514.637 1651.03 515.018C1580.2 515.314 1542.9 516.493 1536.39 518.645C1531.08 520.402 1510.53 521.835 1490.69 521.835H1454.65L1436.19 580.531C1426.03 612.815 1416.23 645.754 1414.41 653.728L1411.09 668.229H1396.71C1383.09 668.229 1382.26 667.815 1380.75 660.282C1379.73 655.189 1374.95 649.239 1367.43 643.709C1356.48 635.663 1354.13 635.083 1332.46 635.083C1311.4 635.083 1309.41 634.63 1311.23 630.25C1318.52 612.718 1331.99 571.001 1333.54 561.196L1335.39 549.457H1295.9L1303.53 534.955C1307.73 526.981 1311.53 519.675 1311.99 518.719C1313.31 515.927 1255.9 512.844 1240.91 514.905C1227.5 516.75 1227.12 517.07 1222.85 529.923C1216.69 548.443 1209.8 554.981 1196.43 554.981H1185.48V521.835H1097.35L1089.97 531.503C1080.5 543.918 1069.89 544.264 1047.34 532.884C1036.2 527.263 1032.1 527.391 1016.73 527.871C1010.05 528.08 1001.23 528.356 988.778 528.253H946.278ZM1614.66 748.271C1630.57 700.45 1644.46 659.147 1645.53 656.49C1646.6 653.833 1646.41 651.894 1645.11 652.181C1643.81 652.471 1606.69 653.659 1562.62 654.822C1518.55 655.985 1472.05 657.924 1459.29 659.131L1436.09 661.324L1429.46 684.802C1416.93 729.179 1393.31 798.542 1377.5 837.411C1375.7 841.822 1377.91 842.239 1402.77 842.195C1417.74 842.165 1440.4 840.303 1453.11 838.057C1471.62 834.784 1480.97 834.563 1500.08 836.947C1544.25 842.457 1578.98 843.35 1582.54 839.065C1584.3 836.95 1598.75 796.092 1614.66 748.271ZM1488.71 698.834C1474.69 706.999 1494.92 710.642 1539.75 708.021C1568.94 706.314 1572.29 705.587 1572.29 700.983C1572.29 696.218 1569.48 695.856 1532.92 695.933C1511.26 695.98 1491.37 697.284 1488.71 698.834ZM1471.9 744.65C1470.89 745.66 1470.06 748.146 1470.06 750.174C1470.06 753.088 1479.27 753.856 1514.27 753.856C1556.63 753.856 1558.47 753.627 1558.47 748.331C1558.47 743.047 1556.63 742.807 1516.11 742.807C1492.81 742.807 1472.92 743.636 1471.9 744.65ZM1476.1 789.057C1458.83 789.874 1456.02 790.697 1456.79 794.722C1457.56 798.744 1461.94 799.545 1486.74 800.21C1520.93 801.125 1537.34 798.44 1538.63 791.714C1539.59 786.725 1532.07 786.405 1476.1 789.057ZM1687.07 541.861C1686.13 546.799 1678.88 571.634 1670.96 597.049L1656.56 643.262L1558.47 643.381C1504.53 643.447 1455.45 644.646 1449.42 646.046C1443.38 647.444 1438.17 648.317 1437.84 647.985C1437.51 647.654 1442.76 630.722 1449.5 610.362C1456.24 589.999 1463.74 566.281 1466.16 557.652L1470.57 541.966L1563.56 540.132C1614.71 539.123 1662.77 537.245 1670.37 535.958C1677.97 534.674 1685.22 533.455 1686.48 533.254C1687.74 533.049 1688.01 536.922 1687.07 541.861ZM1515.58 572.084C1516.5 571.162 1528.09 568.955 1541.32 567.184C1554.55 565.411 1579.37 563.806 1596.46 563.615C1626.6 563.278 1633.64 565.336 1622.6 571.247C1615.66 574.957 1577.07 579.934 1553.54 580.155C1534.56 580.332 1512.1 575.559 1515.58 572.084ZM1504.08 612.163C1503.34 610.95 1503.42 608.155 1504.27 605.948C1505.54 602.636 1514.97 601.937 1558.39 601.937C1608.75 601.937 1610.97 602.167 1610.97 607.346C1610.97 612.5 1608.48 612.793 1558.21 613.561C1529.19 614.005 1504.83 613.376 1504.08 612.163ZM1921.36 574.415C1914.38 569.154 1901.16 555.172 1891.99 543.341L1875.31 521.835H1835.14L1824.91 534.306C1815.1 546.283 1784.22 571.554 1779.4 571.554C1778.12 571.554 1780.11 562.635 1783.82 551.735C1787.52 540.836 1790.56 531.022 1790.56 529.928C1790.56 528.834 1785.9 529.028 1780.2 530.354C1774.5 531.679 1754.81 532.873 1736.44 533.005L1703.04 533.246L1698.24 548.946C1685.16 591.803 1613.57 806.4 1603.4 833.268C1602.42 835.85 1607.64 836.72 1624.1 836.72H1646.12L1652.46 813.933C1661.41 781.776 1662.33 780.607 1667.87 794.49L1672.51 806.121L1683.87 796.376C1698.11 784.173 1699.08 787.336 1689.94 816.115C1686.14 828.078 1683.52 838.353 1684.11 838.949C1685.78 840.615 1704.73 833.98 1720.1 826.346C1739.68 816.626 1765.6 797.741 1777.63 784.419C1786.32 774.804 1788.17 773.804 1789.59 777.953C1798.42 803.715 1829.42 852.075 1839.14 855.235C1840.81 855.779 1845.4 845.465 1849.5 831.964L1849.9 830.662L1850.38 829.077L1850.52 828.622C1857.63 805.25 1860.29 796.497 1857.83 789.569C1856.35 785.422 1853.04 781.928 1847.74 776.343C1847.33 775.912 1846.91 775.468 1846.48 775.011C1831.83 759.524 1819.38 738.581 1823.36 736.117C1824.67 735.313 1834.7 734.736 1845.65 734.838C1856.61 734.943 1865.93 734.601 1866.37 734.082C1866.81 733.565 1873.11 715.117 1880.38 693.088C1887.65 671.06 1894.17 651.485 1894.87 649.585C1895.82 647.002 1890.5 646.132 1873.74 646.132H1851.34V637.845C1851.34 629.694 1851.58 629.559 1865.85 629.531C1875.36 629.515 1885.31 627.197 1894.76 622.8C1909.59 615.897 1934.3 593.759 1934.14 587.508C1934.1 585.569 1928.34 579.677 1921.36 574.415ZM1879.35 593.651L1873.9 586.055C1870.91 581.879 1865.54 575.777 1861.97 572.496L1855.49 566.535L1825.09 593.59L1879.35 593.651ZM1736.1 575.018C1727.85 584.028 1722.53 595.673 1717.42 615.87C1714.94 625.678 1712.17 636.177 1711.27 639.204C1709.81 644.116 1710.14 644.287 1714.34 640.807C1722.67 633.896 1732.06 614.92 1738.13 592.731C1741.39 580.832 1743.54 570.581 1742.91 569.954C1742.28 569.327 1739.22 571.606 1736.1 575.018ZM1759.18 623.344C1758.43 626.001 1757 632.216 1756.01 637.155L1754.2 646.132H1807.81L1803.72 639.917C1801.48 636.498 1791.69 630.379 1781.97 626.316L1780.95 625.889C1766.86 619.996 1762.63 618.229 1760.83 619.614C1760.06 620.208 1759.73 621.38 1759.26 623.055L1759.18 623.344ZM1739.32 658.437C1733.34 664.417 1732.55 667.591 1732.63 685.368C1732.71 703.684 1733.08 705.029 1736.77 700.16C1742.44 692.66 1751.88 666.619 1751.88 658.457C1751.88 649.833 1747.93 649.828 1739.32 658.437ZM1836.67 682.465C1830.73 685.791 1830.62 694.729 1836.5 696.983C1842.08 699.127 1848.58 694.039 1848.58 687.523C1848.58 681.44 1842.85 679.007 1836.67 682.465ZM1777.64 689.224C1775.47 694.876 1782.27 699.289 1787.05 695.326C1789.74 693.088 1789.85 691.423 1787.49 688.578C1783.33 683.567 1779.72 683.805 1777.64 689.224ZM1690.68 698.613C1684.34 708.371 1676.71 733.214 1677.77 740.672C1678.58 746.362 1679.23 745.984 1684.75 736.653C1692.54 723.467 1697.43 707.145 1696.16 698.491L1695.17 691.707L1690.68 698.613ZM1723.58 740.736C1718.51 748.47 1704.91 775.193 1704.91 777.403C1704.91 781.099 1737.57 761.211 1749.11 750.492C1761.5 738.987 1761.52 738.935 1754.64 737.007C1739.7 732.822 1727.83 734.247 1723.58 740.736ZM1338.65 662.014C1337.73 666.191 1336.49 671.204 1335.88 673.151C1335.04 675.867 1338 676.267 1348.55 674.867C1356.12 673.864 1362.31 673.668 1362.31 674.43C1362.31 675.195 1360.44 681.106 1358.16 687.564C1357.99 688.071 1357.81 688.56 1357.65 689.032L1357.54 689.333L1357.54 689.337L1357.54 689.34C1355.05 696.37 1353.94 699.509 1354.8 700.206C1355.5 700.768 1357.48 699.74 1361.05 697.883L1361.51 697.644L1362.17 697.303C1372.59 691.915 1414.81 691.304 1414.79 696.541C1414.78 698.441 1413.55 704.402 1412.05 709.788C1409.93 717.415 1407.19 720.356 1399.64 723.085C1391.59 725.994 1376.12 741.122 1376.12 746.083C1376.12 746.84 1381.1 748.947 1387.17 750.768C1399.63 754.499 1399.8 754.936 1394.1 768.573C1391.09 775.782 1386.81 779.839 1378.21 783.64C1366.97 788.615 1366.17 789.778 1360.24 809.955C1351.89 838.311 1348.08 840.717 1310.63 841.322C1290.52 841.648 1282.2 840.839 1282.23 838.56C1282.27 835.118 1289.51 803.099 1292.33 793.907C1293.53 789.977 1290.43 791.689 1281.57 799.837C1265.31 814.783 1250.44 824.476 1235.91 829.586C1221.92 834.502 1221.74 833.909 1229.93 809.668C1235.8 792.302 1242.66 783.433 1260.94 769.614C1278.32 756.472 1290.49 725.14 1283.28 712.128C1277.17 701.096 1278.77 696.143 1295.31 675.057L1311.19 654.797L1325.75 654.606C1340.23 654.418 1340.3 654.463 1338.65 662.014ZM1321.96 709.904L1337.3 708.924C1345.74 708.385 1354 707.708 1355.67 707.421C1357.35 707.131 1355.06 717.296 1350.48 730.377L1342.27 753.856H1307.54L1321.96 709.904ZM1324.88 800.812C1319.92 800.812 1317.71 796.749 1319.77 791.393C1321.76 786.212 1324.14 785.855 1328.39 790.101C1332.18 793.896 1329.92 800.812 1324.88 800.812ZM934.674 763.99C941.692 742.465 948.237 722.058 949.221 718.638L951.009 712.423L914.212 712.929C893.977 713.208 867.574 714.142 855.545 715.001L833.673 716.567L820.627 755.237C813.455 776.505 806.782 795.841 805.804 798.205C804.226 802.008 810.791 802.536 862.969 802.815L921.915 803.127L934.674 763.99ZM863.897 756.867C858.059 766.744 859.733 769.288 873.772 771.865C883.536 773.66 884.163 773.29 889.658 762.523C892.802 756.358 895.377 750.643 895.377 749.823C895.377 749.003 889.429 748.331 882.16 748.331C870.315 748.331 868.414 749.221 863.897 756.867ZM1013.07 554.937C1012.06 562.558 1012.2 568.753 1013.4 568.703C1014.59 568.656 1028.62 566.831 1044.57 564.648C1060.53 562.466 1075 560.641 1076.74 560.594C1078.81 560.536 1077.7 567.438 1073.56 580.531L1067.22 600.556L1043.42 602.214C1030.33 603.122 1018.98 604.506 1018.2 605.288C1016.19 607.299 1043.44 618.673 1054.61 620.485C1065.45 622.245 1066.03 624.024 1058.11 631.197C1052.81 635.984 1044.57 649.198 1044.57 652.899C1044.57 653.736 1048.3 654.418 1052.86 654.418H1052.95C1056.51 654.418 1058.77 654.418 1059.85 655.547C1061.73 657.5 1060.08 662.834 1055.58 677.404L1055.52 677.607L1049.88 695.851H1023.02L996.696 776.644C982.216 821.078 968.351 864.499 965.884 873.134L961.403 888.831L944.455 880.821C919.931 869.225 901.555 866.209 864.986 867.775C827.83 869.366 804.74 876.084 762.117 897.701L735.229 911.337L753.66 883.006C786.511 832.508 793.935 824.064 808.755 820.333C839.992 812.469 872.976 813.703 923.418 824.625C929.947 826.039 930.955 825.208 932.743 816.963C933.845 811.878 942.676 783.521 952.362 753.95C962.049 724.378 969.976 699.209 969.976 698.016C969.976 696.826 938.139 695.851 899.226 695.851C843.789 695.851 828.753 695.102 829.75 692.398C830.452 690.5 833.154 682.474 835.757 674.56L840.487 660.177L878.877 658.562L867.875 643.37C854.409 624.772 854.031 621.273 865.494 621.273C870.334 621.273 881.604 619.22 890.542 616.715C910.289 611.177 907.037 607.564 882.254 607.503C872.758 607.481 865.005 606.531 865.033 605.39C865.057 604.249 868.033 595.239 871.644 585.365L878.209 567.411L905.443 566.933C920.42 566.668 937.713 566.358 943.869 566.242C954.216 566.046 955.493 565.146 960.8 554.29L966.542 542.551L1014.91 541.079L1013.07 554.937ZM908.117 659.943L938.357 639.312C954.987 627.965 968.978 618.643 969.451 618.596C970.755 618.466 1016.95 657.623 1016.95 658.86C1016.95 659.454 992.46 659.943 962.533 659.943H908.117ZM1140.09 570.971C1145.3 555.503 1149.56 542.468 1149.56 542.01C1149.56 540.032 1113.84 541.38 1112.59 543.402C1111.83 544.631 1107.41 556.064 1102.75 568.808C1098.1 581.553 1091.25 595.154 1087.54 599.032C1077.26 609.76 1072.55 623.91 1072.55 644.055C1072.55 659.343 1070.43 667.632 1059.56 694.967C1048.31 723.251 1046.58 730.242 1046.64 747.254L1046.7 766.893L1007.72 783.06L995.582 821.227C988.907 842.217 984.147 860.094 985.003 860.953C987.775 863.72 1026.38 842.457 1046.75 826.942L1066.54 811.864L1072.63 832.806C1078.45 852.835 1079.02 853.677 1085.82 852.111C1089.73 851.211 1105.36 849.675 1120.55 848.7C1142.78 847.272 1148.88 845.943 1151.73 841.911C1157.93 833.152 1186.17 812.963 1206.61 802.677C1226.2 792.819 1226.42 792.592 1233.47 773.989C1240.65 755.016 1249.03 725.287 1249.03 718.749C1249.03 716.368 1244.91 715.186 1236.6 715.186C1229.76 715.186 1224.16 714.614 1224.16 713.915C1224.16 709.857 1253.54 616.486 1265.39 582.862C1273.11 560.975 1279.42 542.584 1279.42 541.993C1279.42 541.402 1271.07 541.286 1260.87 541.734L1242.31 542.551L1239.71 552.219C1227.02 599.476 1217.52 629.299 1210.06 645.223C1197.23 672.632 1197.31 660.934 1210.24 620.237L1210.33 619.936C1219.79 590.16 1223.08 579.818 1219.53 576.227C1217.64 574.316 1213.82 574.316 1207.96 574.316H1207.85H1194.31L1188.42 594.342C1177.63 631.084 1165.93 661.197 1160 667.508C1145.9 682.507 1147.22 669.038 1163.26 634.224C1163.93 632.777 1164.57 631.391 1165.18 630.065C1165.62 629.118 1166.05 628.201 1166.46 627.313C1173.57 612.002 1176.64 605.397 1174.56 602.575C1172.99 600.435 1168.45 600.47 1160.48 600.533L1160.48 600.533C1159.02 600.544 1157.44 600.556 1155.75 600.556C1143.99 600.556 1133.53 600.228 1132.49 599.824C1131.46 599.421 1134.88 586.436 1140.09 570.971ZM1113.81 649.328C1105.61 663.509 1093.66 697.715 1089.83 717.948L1088 727.615L1094.05 720.102C1106.47 704.692 1128.98 641.207 1123.85 636.075C1123.02 635.246 1118.5 641.21 1113.81 649.328ZM1144.57 685.346C1141.48 690.365 1136.31 701.179 1133.08 709.377C1129.86 717.578 1121.68 734.786 1114.91 747.622C1106.77 763.054 1102.6 774.417 1102.6 781.165C1102.6 786.778 1098.83 802.986 1094.22 817.186C1089.62 831.384 1086.25 843.399 1086.73 843.883C1087.22 844.366 1096.43 835.127 1107.21 823.349C1129.68 798.785 1150.65 786.074 1177.65 780.654L1195.15 777.141L1203.76 752.378C1208.5 738.758 1213.22 723.762 1214.26 719.055L1216.13 710.495L1168.96 706.872L1151.96 719.381C1142.61 726.262 1134.43 731.355 1133.77 730.701C1133.12 730.046 1134.44 725.917 1136.71 721.522C1142.31 710.697 1152.89 678.924 1151.4 677.43C1150.74 676.767 1147.66 680.33 1144.57 685.346ZM1307.05 575.169C1307.05 575.636 1303.24 586.453 1298.59 599.203C1293.93 611.953 1286.57 637.362 1282.21 655.664C1271.32 701.491 1265.04 723.472 1262.84 723.472C1259.83 723.472 1254.43 709.758 1251.63 695.003C1248.1 676.377 1252.19 652.593 1266.32 609.533L1277.88 574.316H1292.46C1300.49 574.316 1307.05 574.7 1307.05 575.169ZM1185.52 751.152C1185.54 747.323 1186.31 741.393 1187.22 737.973C1189.02 731.264 1186.69 730.604 1174.41 734.338C1160.51 738.567 1148 746.671 1132.38 761.568C1123.6 769.943 1116.41 777.782 1116.41 778.991C1116.41 780.198 1124.47 777.417 1134.31 772.812C1144.16 768.205 1159.7 763.015 1168.85 761.278C1183.93 758.411 1185.49 757.469 1185.52 751.152Z" fill="black"/>
<path fill-rule="evenodd" clip-rule="evenodd" d="M1013.07 554.937C1012.06 562.558 1012.2 568.753 1013.4 568.703C1014.59 568.656 1028.62 566.831 1044.57 564.648C1060.53 562.466 1075 560.641 1076.74 560.594C1078.81 560.536 1077.7 567.438 1073.56 580.531L1067.22 600.556L1043.42 602.214C1030.33 603.122 1018.98 604.506 1018.2 605.288C1016.19 607.299 1043.44 618.673 1054.61 620.485C1065.45 622.245 1066.03 624.024 1058.11 631.197C1052.81 635.984 1044.57 649.198 1044.57 652.899C1044.57 653.736 1048.3 654.418 1052.86 654.418H1052.95C1056.51 654.418 1058.77 654.418 1059.85 655.547C1061.73 657.5 1060.08 662.834 1055.58 677.404L1055.52 677.607L1049.88 695.851H1023.02L996.696 776.644C982.216 821.078 968.351 864.499 965.884 873.134L961.403 888.831L944.455 880.821C919.931 869.225 901.555 866.209 864.986 867.775C827.83 869.366 804.74 876.084 762.117 897.701L735.229 911.337L753.66 883.006C786.511 832.508 793.935 824.064 808.755 820.333C839.992 812.469 872.976 813.703 923.418 824.625C929.947 826.039 930.955 825.208 932.743 816.963C933.845 811.878 942.676 783.521 952.362 753.95C962.049 724.378 969.976 699.209 969.976 698.016C969.976 696.826 938.139 695.851 899.226 695.851C843.789 695.851 828.753 695.102 829.75 692.398C830.452 690.5 833.154 682.474 835.757 674.56L840.487 660.177L878.877 658.562L867.875 643.37C854.409 624.772 854.031 621.273 865.494 621.273C870.334 621.273 881.604 619.22 890.542 616.715C910.289 611.177 907.037 607.564 882.254 607.503C872.758 607.481 865.005 606.531 865.033 605.39C865.057 604.249 868.033 595.239 871.644 585.365L878.209 567.411L905.443 566.933C920.42 566.668 937.713 566.358 943.869 566.242C954.216 566.046 955.493 565.146 960.8 554.29L966.542 542.551L1014.91 541.079L1013.07 554.937ZM908.117 659.943L938.357 639.312C954.987 627.965 968.978 618.643 969.451 618.596C970.755 618.466 1016.95 657.623 1016.95 658.86C1016.95 659.454 992.46 659.943 962.533 659.943H908.117Z" fill="black"/>
<path fill-rule="evenodd" clip-rule="evenodd" d="M949.221 718.638C948.237 722.058 941.692 742.465 934.674 763.99L921.915 803.127L862.969 802.815C810.791 802.536 804.226 802.008 805.804 798.205C806.782 795.841 813.455 776.505 820.627 755.237L833.673 716.567L855.545 715.001C867.574 714.142 893.977 713.208 914.212 712.929L951.009 712.423L949.221 718.638ZM873.772 771.865C859.733 769.288 858.059 766.744 863.897 756.867C868.414 749.221 870.315 748.331 882.16 748.331C889.429 748.331 895.377 749.003 895.377 749.823C895.377 750.643 892.802 756.358 889.658 762.523C884.163 773.29 883.536 773.66 873.772 771.865Z" fill="black"/>
<path fill-rule="evenodd" clip-rule="evenodd" d="M1149.56 542.01C1149.56 542.468 1145.3 555.503 1140.09 570.971C1134.88 586.436 1131.46 599.421 1132.49 599.824C1133.53 600.228 1143.99 600.556 1155.75 600.556C1157.44 600.556 1159.02 600.544 1160.48 600.533L1160.48 600.533C1168.45 600.47 1172.99 600.435 1174.56 602.575C1176.64 605.397 1173.57 612.002 1166.46 627.313C1166.05 628.201 1165.62 629.118 1165.18 630.065C1164.57 631.391 1163.93 632.777 1163.26 634.224C1147.22 669.038 1145.9 682.507 1160 667.508C1165.93 661.197 1177.63 631.084 1188.42 594.342L1194.31 574.316H1207.85H1207.96C1213.82 574.316 1217.64 574.316 1219.53 576.227C1223.08 579.818 1219.79 590.16 1210.33 619.936L1210.24 620.237C1197.31 660.934 1197.23 672.632 1210.06 645.223C1217.52 629.299 1227.02 599.476 1239.71 552.219L1242.31 542.551L1260.87 541.734C1271.07 541.286 1279.42 541.402 1279.42 541.993C1279.42 542.584 1273.11 560.975 1265.39 582.862C1253.54 616.486 1224.16 709.857 1224.16 713.915C1224.16 714.614 1229.76 715.186 1236.6 715.186C1244.91 715.186 1249.03 716.368 1249.03 718.749C1249.03 725.287 1240.65 755.016 1233.47 773.989C1226.42 792.592 1226.2 792.819 1206.61 802.677C1186.17 812.963 1157.93 833.152 1151.73 841.911C1148.88 845.943 1142.78 847.272 1120.55 848.7C1105.36 849.675 1089.73 851.211 1085.82 852.111C1079.02 853.677 1078.45 852.835 1072.63 832.806L1066.54 811.864L1046.75 826.942C1026.38 842.457 987.775 863.72 985.003 860.953C984.147 860.094 988.907 842.217 995.582 821.227L1007.72 783.06L1046.7 766.893L1046.64 747.254C1046.58 730.242 1048.31 723.251 1059.56 694.967C1070.43 667.632 1072.55 659.343 1072.55 644.055C1072.55 623.91 1077.26 609.76 1087.54 599.032C1091.25 595.154 1098.1 581.553 1102.75 568.808C1107.41 556.064 1111.83 544.631 1112.59 543.402C1113.84 541.38 1149.56 540.032 1149.56 542.01ZM1089.83 717.948C1093.66 697.715 1105.61 663.509 1113.81 649.328C1118.5 641.21 1123.02 635.246 1123.85 636.075C1128.98 641.207 1106.47 704.692 1094.05 720.102L1088 727.615L1089.83 717.948ZM1133.08 709.377C1136.31 701.179 1141.48 690.365 1144.57 685.346C1147.66 680.33 1150.74 676.767 1151.4 677.43C1152.89 678.924 1142.31 710.697 1136.71 721.522C1134.44 725.917 1133.12 730.046 1133.77 730.701C1134.43 731.355 1142.61 726.262 1151.96 719.381L1168.96 706.872L1216.13 710.495L1214.26 719.055C1213.22 723.762 1208.5 738.758 1203.76 752.378L1195.15 777.141L1177.65 780.654C1150.65 786.074 1129.68 798.785 1107.21 823.349C1096.43 835.127 1087.22 844.366 1086.73 843.883C1086.25 843.399 1089.62 831.384 1094.22 817.186C1098.83 802.986 1102.6 786.778 1102.6 781.165C1102.6 774.417 1106.77 763.054 1114.91 747.622C1121.68 734.786 1129.86 717.578 1133.08 709.377Z" fill="black"/>
<path d="M1187.22 737.973C1186.31 741.393 1185.54 747.323 1185.52 751.152C1185.49 757.469 1183.93 758.411 1168.85 761.278C1159.7 763.015 1144.16 768.205 1134.31 772.812C1124.47 777.417 1116.41 780.198 1116.41 778.991C1116.41 777.782 1123.6 769.943 1132.38 761.568C1148 746.671 1160.51 738.567 1174.41 734.338C1186.69 730.604 1189.02 731.264 1187.22 737.973Z" fill="black"/>
<path d="M1307.05 575.169C1307.05 575.636 1303.24 586.453 1298.59 599.203C1293.93 611.953 1286.57 637.362 1282.21 655.664C1271.32 701.491 1265.04 723.472 1262.84 723.472C1259.83 723.472 1254.43 709.758 1251.63 695.003C1248.1 676.377 1252.19 652.593 1266.32 609.533L1277.88 574.316H1292.46C1300.49 574.316 1307.05 574.7 1307.05 575.169Z" fill="black"/>
<path fill-rule="evenodd" clip-rule="evenodd" d="M1338.65 662.014C1337.73 666.191 1336.49 671.204 1335.88 673.151C1335.04 675.867 1338 676.267 1348.55 674.867C1356.12 673.864 1362.31 673.668 1362.31 674.43C1362.31 675.195 1360.44 681.106 1358.16 687.564C1357.99 688.071 1357.81 688.56 1357.65 689.032L1357.54 689.333L1357.54 689.337L1357.54 689.34C1355.05 696.37 1353.94 699.509 1354.8 700.206C1355.5 700.768 1357.48 699.74 1361.05 697.883L1361.51 697.644L1362.17 697.303C1372.59 691.915 1414.81 691.304 1414.79 696.541C1414.78 698.441 1413.55 704.402 1412.05 709.788C1409.93 717.415 1407.19 720.356 1399.64 723.085C1391.59 725.994 1376.12 741.122 1376.12 746.083C1376.12 746.84 1381.1 748.947 1387.17 750.768C1399.63 754.499 1399.8 754.936 1394.1 768.573C1391.09 775.782 1386.81 779.839 1378.21 783.64C1366.97 788.615 1366.17 789.778 1360.24 809.955C1351.89 838.311 1348.08 840.717 1310.63 841.322C1290.52 841.648 1282.2 840.839 1282.23 838.56C1282.27 835.118 1289.51 803.099 1292.33 793.907C1293.53 789.977 1290.43 791.689 1281.57 799.837C1265.31 814.783 1250.44 824.476 1235.91 829.586C1221.92 834.502 1221.74 833.909 1229.93 809.668C1235.8 792.302 1242.66 783.433 1260.94 769.614C1278.32 756.472 1290.49 725.14 1283.28 712.128C1277.17 701.096 1278.77 696.143 1295.31 675.057L1311.19 654.797L1325.75 654.606C1340.23 654.418 1340.3 654.463 1338.65 662.014ZM1321.96 709.904L1337.3 708.924C1345.74 708.385 1354 707.708 1355.67 707.421C1357.35 707.131 1355.06 717.296 1350.48 730.377L1342.27 753.856H1307.54L1321.96 709.904ZM1324.88 800.812C1319.92 800.812 1317.71 796.749 1319.77 791.393C1321.76 786.212 1324.14 785.855 1328.39 790.101C1332.18 793.896 1329.92 800.812 1324.88 800.812Z" fill="black"/>
<path fill-rule="evenodd" clip-rule="evenodd" d="M1645.53 656.49C1644.46 659.147 1630.57 700.45 1614.66 748.271C1598.75 796.092 1584.3 836.95 1582.54 839.065C1578.98 843.35 1544.25 842.457 1500.08 836.947C1480.97 834.563 1471.62 834.784 1453.11 838.057C1440.4 840.303 1417.74 842.165 1402.77 842.195C1377.91 842.239 1375.7 841.822 1377.5 837.411C1393.31 798.542 1416.93 729.179 1429.46 684.802L1436.09 661.324L1459.29 659.131C1472.05 657.924 1518.55 655.985 1562.62 654.822C1606.69 653.659 1643.81 652.471 1645.11 652.181C1646.41 651.894 1646.6 653.833 1645.53 656.49ZM1539.75 708.021C1494.92 710.642 1474.69 706.999 1488.71 698.834C1491.37 697.284 1511.26 695.98 1532.92 695.933C1569.48 695.856 1572.29 696.218 1572.29 700.983C1572.29 705.587 1568.94 706.314 1539.75 708.021ZM1470.06 750.174C1470.06 748.146 1470.89 745.66 1471.9 744.65C1472.92 743.636 1492.81 742.807 1516.11 742.807C1556.63 742.807 1558.47 743.047 1558.47 748.331C1558.47 753.627 1556.63 753.856 1514.27 753.856C1479.27 753.856 1470.06 753.088 1470.06 750.174ZM1456.79 794.722C1456.02 790.697 1458.83 789.874 1476.1 789.057C1532.07 786.405 1539.59 786.725 1538.63 791.714C1537.34 798.44 1520.93 801.125 1486.74 800.21C1461.94 799.545 1457.56 798.744 1456.79 794.722Z" fill="black"/>
<path fill-rule="evenodd" clip-rule="evenodd" d="M1687.07 541.861C1686.13 546.799 1678.88 571.634 1670.96 597.049L1656.56 643.262L1558.47 643.381C1504.53 643.447 1455.45 644.646 1449.42 646.046C1443.38 647.444 1438.17 648.317 1437.84 647.985C1437.51 647.654 1442.76 630.722 1449.5 610.362C1456.24 589.999 1463.74 566.281 1466.16 557.652L1470.57 541.966L1563.56 540.132C1614.71 539.123 1662.77 537.245 1670.37 535.958C1677.97 534.674 1685.22 533.455 1686.48 533.254C1687.74 533.049 1688.01 536.922 1687.07 541.861ZM1515.58 572.084C1516.5 571.162 1528.09 568.955 1541.32 567.184C1554.55 565.411 1579.37 563.806 1596.46 563.615C1626.6 563.278 1633.64 565.336 1622.6 571.247C1615.66 574.957 1577.07 579.934 1553.54 580.155C1534.56 580.332 1512.1 575.559 1515.58 572.084ZM1504.08 612.163C1503.34 610.95 1503.42 608.155 1504.27 605.948C1505.54 602.636 1514.97 601.937 1558.39 601.937C1608.75 601.937 1610.97 602.167 1610.97 607.346C1610.97 612.5 1608.48 612.793 1558.21 613.561C1529.19 614.005 1504.83 613.376 1504.08 612.163Z" fill="black"/>
<path fill-rule="evenodd" clip-rule="evenodd" d="M1891.99 543.341C1901.16 555.172 1914.38 569.154 1921.36 574.415C1928.34 579.677 1934.1 585.569 1934.14 587.508C1934.3 593.759 1909.59 615.897 1894.76 622.8C1885.31 627.197 1875.36 629.515 1865.85 629.531C1851.58 629.559 1851.34 629.694 1851.34 637.845V646.132H1873.74C1890.5 646.132 1895.82 647.002 1894.87 649.585C1894.17 651.485 1887.65 671.06 1880.38 693.088C1873.11 715.117 1866.81 733.565 1866.37 734.082C1865.93 734.601 1856.61 734.943 1845.65 734.838C1834.7 734.736 1824.67 735.313 1823.36 736.117C1819.38 738.581 1831.83 759.524 1846.48 775.011C1846.91 775.468 1847.33 775.912 1847.74 776.343C1853.04 781.928 1856.35 785.422 1857.83 789.569C1860.29 796.497 1857.63 805.25 1850.52 828.622L1850.38 829.077L1849.9 830.662L1849.5 831.964C1845.4 845.465 1840.81 855.779 1839.14 855.235C1829.42 852.075 1798.42 803.715 1789.59 777.953C1788.17 773.804 1786.32 774.804 1777.63 784.419C1765.6 797.741 1739.68 816.626 1720.1 826.346C1704.73 833.98 1685.78 840.615 1684.11 838.949C1683.52 838.353 1686.14 828.078 1689.94 816.115C1699.08 787.336 1698.11 784.173 1683.87 796.376L1672.51 806.121L1667.87 794.49C1662.33 780.607 1661.41 781.776 1652.46 813.933L1646.12 836.72H1624.1C1607.64 836.72 1602.42 835.85 1603.4 833.268C1613.57 806.4 1685.16 591.803 1698.24 548.946L1703.04 533.246L1736.44 533.005C1754.81 532.873 1774.5 531.679 1780.2 530.354C1785.9 529.028 1790.56 528.834 1790.56 529.928C1790.56 531.022 1787.52 540.836 1783.82 551.735C1780.11 562.635 1778.12 571.554 1779.4 571.554C1784.22 571.554 1815.1 546.283 1824.91 534.306L1835.14 521.835H1875.31L1891.99 543.341ZM1873.9 586.055L1879.35 593.651L1825.09 593.59L1855.49 566.535L1861.97 572.496C1865.54 575.777 1870.91 581.879 1873.9 586.055ZM1717.42 615.87C1722.53 595.673 1727.85 584.028 1736.1 575.018C1739.22 571.606 1742.28 569.327 1742.91 569.954C1743.54 570.581 1741.39 580.832 1738.13 592.731C1732.06 614.92 1722.67 633.896 1714.34 640.807C1710.14 644.287 1709.81 644.116 1711.27 639.204C1712.17 636.177 1714.94 625.678 1717.42 615.87ZM1756.01 637.155C1757 632.216 1758.43 626.001 1759.18 623.344L1759.26 623.055C1759.73 621.38 1760.06 620.208 1760.83 619.614C1762.63 618.229 1766.86 619.996 1780.95 625.889L1781.97 626.316C1791.69 630.379 1801.48 636.498 1803.72 639.917L1807.81 646.132H1754.2L1756.01 637.155ZM1732.63 685.368C1732.55 667.591 1733.34 664.417 1739.32 658.437C1747.93 649.828 1751.88 649.833 1751.88 658.457C1751.88 666.619 1742.44 692.66 1736.77 700.16C1733.08 705.029 1732.71 703.684 1732.63 685.368ZM1836.5 696.983C1830.62 694.729 1830.73 685.791 1836.67 682.465C1842.85 679.007 1848.58 681.44 1848.58 687.523C1848.58 694.039 1842.08 699.127 1836.5 696.983ZM1787.05 695.326C1782.27 699.289 1775.47 694.876 1777.64 689.224C1779.72 683.805 1783.33 683.567 1787.49 688.578C1789.85 691.423 1789.74 693.088 1787.05 695.326ZM1677.77 740.672C1676.71 733.214 1684.34 708.371 1690.68 698.613L1695.17 691.707L1696.16 698.491C1697.43 707.145 1692.54 723.467 1684.75 736.653C1679.23 745.984 1678.58 746.362 1677.77 740.672ZM1704.91 777.403C1704.91 775.193 1718.51 748.47 1723.58 740.736C1727.83 734.247 1739.7 732.822 1754.64 737.007C1761.52 738.935 1761.5 738.987 1749.11 750.492C1737.57 761.211 1704.91 781.099 1704.91 777.403Z" fill="black"/>
<path fill-rule="evenodd" clip-rule="evenodd" d="M946.721 716.138C945.737 719.558 939.192 739.965 932.174 761.49L919.415 800.627L860.469 800.315C808.291 800.036 801.726 799.508 803.304 795.705C804.282 793.341 810.955 774.005 818.127 752.737L831.173 714.067L853.045 712.501C865.074 711.642 891.477 710.708 911.712 710.429L948.509 709.923L946.721 716.138ZM871.272 769.365C857.233 766.788 855.559 764.244 861.397 754.367C865.914 746.721 867.815 745.831 879.66 745.831C886.929 745.831 892.877 746.503 892.877 747.323C892.877 748.143 890.302 753.858 887.158 760.023C881.663 770.79 881.036 771.16 871.272 769.365Z" fill="white"/>
<path fill-rule="evenodd" clip-rule="evenodd" d="M1010.57 552.437C1009.56 560.058 1009.7 566.253 1010.9 566.203C1012.09 566.156 1026.12 564.331 1042.07 562.148C1058.03 559.966 1072.5 558.141 1074.24 558.094C1076.31 558.036 1075.2 564.938 1071.06 578.031L1064.72 598.056L1040.92 599.714C1027.83 600.622 1016.48 602.006 1015.7 602.788C1013.69 604.799 1040.94 616.173 1052.11 617.985C1062.95 619.745 1063.53 621.524 1055.61 628.697C1050.31 633.484 1042.07 646.698 1042.07 650.399C1042.07 651.236 1045.8 651.918 1050.36 651.918H1050.45C1054.01 651.918 1056.27 651.918 1057.35 653.047C1059.23 655 1057.58 660.334 1053.08 674.904L1053.02 675.107L1047.38 693.351H1020.52L994.196 774.144C979.716 818.578 965.851 861.999 963.384 870.634L958.903 886.331L941.955 878.321C917.431 866.725 899.055 863.709 862.486 865.275C825.33 866.866 802.24 873.584 759.617 895.201L732.729 908.837L751.16 880.506C784.011 830.008 791.435 821.564 806.255 817.833C837.492 809.969 870.476 811.203 920.918 822.125C927.447 823.539 928.455 822.708 930.243 814.463C931.345 809.378 940.176 781.021 949.862 751.45C959.549 721.878 967.476 696.709 967.476 695.516C967.476 694.326 935.639 693.351 896.726 693.351C841.289 693.351 826.253 692.602 827.25 689.898C827.952 688 830.654 679.974 833.257 672.06L837.987 657.677L876.377 656.062L865.375 640.87C851.909 622.272 851.531 618.773 862.994 618.773C867.834 618.773 879.104 616.72 888.042 614.215C907.789 608.677 904.537 605.064 879.754 605.003C870.258 604.981 862.505 604.031 862.533 602.89C862.557 601.749 865.533 592.739 869.144 582.865L875.709 564.911L902.943 564.433C917.92 564.168 935.213 563.858 941.369 563.742C951.716 563.546 952.993 562.646 958.3 551.79L964.042 540.051L1012.41 538.579L1010.57 552.437ZM905.617 657.443L935.857 636.812C952.487 625.465 966.478 616.143 966.951 616.096C968.255 615.966 1014.45 655.123 1014.45 656.36C1014.45 656.954 989.96 657.443 960.033 657.443H905.617Z" fill="white"/>
<path fill-rule="evenodd" clip-rule="evenodd" d="M1147.06 539.51C1147.06 539.968 1142.8 553.003 1137.59 568.471C1132.38 583.936 1128.96 596.921 1129.99 597.324C1131.03 597.728 1141.49 598.056 1153.25 598.056C1154.94 598.056 1156.52 598.044 1157.98 598.033L1157.98 598.033C1165.95 597.97 1170.49 597.935 1172.06 600.075C1174.14 602.897 1171.07 609.502 1163.96 624.813C1163.55 625.701 1163.12 626.618 1162.68 627.565C1162.07 628.891 1161.43 630.277 1160.76 631.724C1144.72 666.538 1143.4 680.007 1157.5 665.008C1163.43 658.697 1175.13 628.584 1185.92 591.842L1191.81 571.816H1205.35H1205.46C1211.32 571.816 1215.14 571.816 1217.03 573.727C1220.58 577.318 1217.29 587.66 1207.83 617.436L1207.74 617.737C1194.81 658.434 1194.73 670.132 1207.56 642.723C1215.02 626.799 1224.52 596.976 1237.21 549.719L1239.81 540.051L1258.37 539.234C1268.57 538.786 1276.92 538.902 1276.92 539.493C1276.92 540.084 1270.61 558.475 1262.89 580.362C1251.04 613.986 1221.66 707.357 1221.66 711.415C1221.66 712.114 1227.26 712.686 1234.1 712.686C1242.41 712.686 1246.53 713.868 1246.53 716.249C1246.53 722.787 1238.15 752.516 1230.97 771.489C1223.92 790.092 1223.7 790.319 1204.11 800.177C1183.67 810.463 1155.43 830.652 1149.23 839.411C1146.38 843.443 1140.28 844.772 1118.05 846.2C1102.86 847.175 1087.23 848.711 1083.32 849.611C1076.52 851.177 1075.95 850.335 1070.13 830.306L1064.04 809.364L1044.25 824.442C1023.88 839.957 985.275 861.22 982.503 858.453C981.647 857.594 986.407 839.717 993.082 818.727L1005.22 780.56L1044.2 764.393L1044.14 744.754C1044.08 727.742 1045.81 720.751 1057.06 692.467C1067.93 665.132 1070.05 656.843 1070.05 641.555C1070.05 621.41 1074.76 607.26 1085.04 596.532C1088.75 592.654 1095.6 579.053 1100.25 566.308C1104.91 553.564 1109.33 542.131 1110.09 540.902C1111.34 538.88 1147.06 537.532 1147.06 539.51ZM1087.33 715.448C1091.16 695.215 1103.11 661.009 1111.31 646.828C1116 638.71 1120.52 632.746 1121.35 633.575C1126.48 638.707 1103.97 702.192 1091.55 717.602L1085.5 725.115L1087.33 715.448ZM1130.58 706.877C1133.81 698.679 1138.98 687.865 1142.07 682.846C1145.16 677.83 1148.24 674.267 1148.9 674.93C1150.39 676.424 1139.81 708.197 1134.21 719.022C1131.94 723.417 1130.62 727.546 1131.27 728.201C1131.93 728.855 1140.11 723.762 1149.46 716.881L1166.46 704.372L1213.63 707.995L1211.76 716.555C1210.72 721.262 1206 736.258 1201.26 749.878L1192.65 774.641L1175.15 778.154C1148.15 783.574 1127.18 796.285 1104.71 820.849C1093.93 832.627 1084.72 841.866 1084.23 841.383C1083.75 840.899 1087.12 828.884 1091.72 814.686C1096.33 800.486 1100.1 784.278 1100.1 778.665C1100.1 771.917 1104.27 760.554 1112.41 745.122C1119.18 732.286 1127.36 715.078 1130.58 706.877Z" fill="white"/>
<path d="M1184.72 735.473C1183.81 738.893 1183.04 744.823 1183.02 748.652C1182.99 754.969 1181.43 755.911 1166.35 758.778C1157.2 760.515 1141.66 765.705 1131.81 770.312C1121.97 774.917 1113.91 777.698 1113.91 776.491C1113.91 775.282 1121.1 767.443 1129.88 759.068C1145.5 744.171 1158.01 736.067 1171.91 731.838C1184.19 728.104 1186.52 728.764 1184.72 735.473Z" fill="white"/>
<path d="M1304.55 572.669C1304.55 573.136 1300.74 583.953 1296.09 596.703C1291.43 609.453 1284.07 634.862 1279.71 653.164C1268.82 698.991 1262.54 720.972 1260.34 720.972C1257.33 720.972 1251.93 707.258 1249.13 692.503C1245.6 673.877 1249.69 650.093 1263.82 607.033L1275.38 571.816H1289.96C1297.99 571.816 1304.55 572.2 1304.55 572.669Z" fill="white"/>
<path fill-rule="evenodd" clip-rule="evenodd" d="M1336.15 659.514C1335.23 663.691 1333.99 668.704 1333.38 670.651C1332.54 673.367 1335.5 673.767 1346.05 672.367C1353.62 671.364 1359.81 671.168 1359.81 671.93C1359.81 672.695 1357.94 678.606 1355.66 685.064C1355.49 685.571 1355.31 686.06 1355.15 686.532L1355.04 686.833L1355.04 686.837L1355.04 686.84C1352.55 693.87 1351.44 697.009 1352.3 697.706C1353 698.268 1354.98 697.24 1358.55 695.383L1359.01 695.144L1359.67 694.803C1370.09 689.415 1412.31 688.804 1412.29 694.041C1412.28 695.941 1411.05 701.902 1409.55 707.288C1407.43 714.915 1404.69 717.856 1397.14 720.585C1389.09 723.494 1373.62 738.622 1373.62 743.583C1373.62 744.34 1378.6 746.447 1384.67 748.268C1397.13 751.999 1397.3 752.436 1391.6 766.073C1388.59 773.282 1384.31 777.339 1375.71 781.14C1364.47 786.115 1363.67 787.278 1357.74 807.455C1349.39 835.811 1345.58 838.217 1308.13 838.822C1288.02 839.148 1279.7 838.339 1279.73 836.06C1279.77 832.618 1287.01 800.599 1289.83 791.407C1291.03 787.477 1287.93 789.189 1279.07 797.337C1262.81 812.283 1247.94 821.976 1233.41 827.086C1219.42 832.002 1219.24 831.409 1227.43 807.168C1233.3 789.802 1240.16 780.933 1258.44 767.114C1275.82 753.972 1287.99 722.64 1280.78 709.628C1274.67 698.596 1276.27 693.643 1292.81 672.557L1308.69 652.297L1323.25 652.106C1337.73 651.918 1337.8 651.963 1336.15 659.514ZM1319.46 707.404L1334.8 706.424C1343.24 705.885 1351.5 705.208 1353.17 704.921C1354.85 704.631 1352.56 714.796 1347.98 727.877L1339.77 751.356H1305.04L1319.46 707.404ZM1322.38 798.312C1317.42 798.312 1315.21 794.249 1317.27 788.893C1319.26 783.712 1321.64 783.355 1325.89 787.601C1329.68 791.396 1327.42 798.312 1322.38 798.312Z" fill="white"/>
<path fill-rule="evenodd" clip-rule="evenodd" d="M1643.03 653.99C1641.96 656.647 1628.07 697.95 1612.16 745.771C1596.25 793.592 1581.8 834.45 1580.04 836.565C1576.48 840.85 1541.75 839.957 1497.58 834.447C1478.47 832.063 1469.12 832.284 1450.61 835.557C1437.9 837.803 1415.24 839.665 1400.27 839.695C1375.41 839.739 1373.2 839.322 1375 834.911C1390.81 796.042 1414.43 726.679 1426.96 682.302L1433.59 658.824L1456.79 656.631C1469.55 655.424 1516.05 653.485 1560.12 652.322C1604.19 651.159 1641.31 649.971 1642.61 649.681C1643.91 649.394 1644.1 651.333 1643.03 653.99ZM1537.25 705.521C1492.42 708.142 1472.19 704.499 1486.21 696.334C1488.87 694.784 1508.76 693.48 1530.42 693.433C1566.98 693.356 1569.79 693.718 1569.79 698.483C1569.79 703.087 1566.44 703.814 1537.25 705.521ZM1467.56 747.674C1467.56 745.646 1468.39 743.16 1469.4 742.15C1470.42 741.136 1490.31 740.307 1513.61 740.307C1554.13 740.307 1555.97 740.547 1555.97 745.831C1555.97 751.127 1554.13 751.356 1511.77 751.356C1476.77 751.356 1467.56 750.588 1467.56 747.674ZM1454.29 792.222C1453.52 788.197 1456.33 787.374 1473.6 786.557C1529.57 783.905 1537.09 784.225 1536.13 789.214C1534.84 795.94 1518.43 798.625 1484.24 797.71C1459.44 797.045 1455.06 796.244 1454.29 792.222Z" fill="white"/>
<path fill-rule="evenodd" clip-rule="evenodd" d="M1684.57 539.361C1683.63 544.299 1676.38 569.134 1668.46 594.549L1654.06 640.762L1555.97 640.881C1502.03 640.947 1452.95 642.146 1446.92 643.546C1440.88 644.944 1435.67 645.817 1435.34 645.485C1435.01 645.154 1440.26 628.222 1447 607.862C1453.74 587.499 1461.24 563.781 1463.66 555.152L1468.07 539.466L1561.06 537.632C1612.21 536.623 1660.27 534.745 1667.87 533.458C1675.47 532.174 1682.72 530.955 1683.98 530.754C1685.24 530.549 1685.51 534.422 1684.57 539.361ZM1513.08 569.584C1514 568.662 1525.59 566.455 1538.82 564.684C1552.05 562.911 1576.87 561.306 1593.96 561.115C1624.1 560.778 1631.14 562.836 1620.1 568.747C1613.16 572.457 1574.57 577.434 1551.04 577.655C1532.06 577.832 1509.6 573.059 1513.08 569.584ZM1501.58 609.663C1500.84 608.45 1500.92 605.655 1501.77 603.448C1503.04 600.136 1512.47 599.437 1555.89 599.437C1606.25 599.437 1608.47 599.667 1608.47 604.846C1608.47 610 1605.98 610.293 1555.71 611.061C1526.69 611.505 1502.33 610.876 1501.58 609.663Z" fill="white"/>
<path fill-rule="evenodd" clip-rule="evenodd" d="M1889.49 540.841C1898.66 552.672 1911.88 566.654 1918.86 571.915C1925.84 577.177 1931.6 583.069 1931.64 585.008C1931.8 591.259 1907.09 613.397 1892.26 620.3C1882.81 624.697 1872.86 627.015 1863.35 627.031C1849.08 627.059 1848.84 627.194 1848.84 635.345V643.632H1871.24C1888 643.632 1893.32 644.502 1892.37 647.085C1891.67 648.985 1885.15 668.56 1877.88 690.588C1870.61 712.617 1864.31 731.065 1863.87 731.582C1863.43 732.101 1854.11 732.443 1843.15 732.338C1832.2 732.236 1822.17 732.813 1820.86 733.617C1816.88 736.081 1829.33 757.024 1843.98 772.511C1844.41 772.968 1844.83 773.412 1845.24 773.843C1845.57 774.192 1845.89 774.533 1846.21 774.866C1850.94 779.868 1853.94 783.181 1855.33 787.069C1857.79 793.997 1855.13 802.75 1848.02 826.122L1847.88 826.577L1847.4 828.162L1847 829.464C1842.9 842.965 1838.31 853.279 1836.64 852.735C1826.92 849.575 1795.92 801.215 1787.09 775.453C1785.67 771.304 1783.82 772.304 1775.13 781.919C1763.1 795.241 1737.18 814.126 1717.6 823.846C1702.23 831.48 1683.28 838.115 1681.61 836.449C1681.02 835.853 1683.64 825.578 1687.44 813.615C1696.58 784.836 1695.61 781.673 1681.37 793.876L1670.01 803.621L1665.37 791.99C1659.83 778.107 1658.91 779.276 1649.96 811.433L1643.62 834.22H1621.6C1605.14 834.22 1599.92 833.35 1600.9 830.768C1611.07 803.9 1682.66 589.303 1695.74 546.446L1700.54 530.746L1733.94 530.505C1752.31 530.373 1772 529.179 1777.7 527.854C1783.4 526.528 1788.06 526.334 1788.06 527.428C1788.06 528.522 1785.02 538.336 1781.32 549.235C1777.61 560.135 1775.62 569.054 1776.9 569.054C1781.72 569.054 1812.6 543.783 1822.41 531.806L1832.64 519.335H1872.81L1889.49 540.841ZM1871.4 583.555L1876.85 591.151L1822.59 591.09L1852.99 564.035L1859.47 569.996C1863.04 573.277 1868.41 579.379 1871.4 583.555ZM1714.92 613.37C1720.03 593.173 1725.35 581.528 1733.6 572.518C1736.72 569.106 1739.78 566.827 1740.41 567.454C1741.04 568.081 1738.89 578.332 1735.63 590.231C1729.56 612.42 1720.17 631.396 1711.84 638.307C1707.64 641.787 1707.31 641.616 1708.77 636.704C1709.67 633.677 1712.44 623.178 1714.92 613.37ZM1753.51 634.655C1754.5 629.716 1755.93 623.501 1756.68 620.844L1756.76 620.555C1757.23 618.88 1757.56 617.708 1758.33 617.114C1760.13 615.729 1764.36 617.496 1778.45 623.389L1779.47 623.816C1789.19 627.879 1798.98 633.998 1801.22 637.417L1805.31 643.632H1751.7L1753.51 634.655ZM1730.13 682.868C1730.05 665.091 1730.84 661.917 1736.82 655.937C1745.43 647.328 1749.38 647.333 1749.38 655.957C1749.38 664.119 1739.94 690.16 1734.27 697.66C1730.58 702.529 1730.21 701.184 1730.13 682.868ZM1834 694.483C1828.12 692.229 1828.23 683.291 1834.17 679.965C1840.35 676.507 1846.08 678.94 1846.08 685.023C1846.08 691.539 1839.58 696.627 1834 694.483ZM1784.55 692.826C1779.77 696.789 1772.97 692.376 1775.14 686.724C1777.22 681.305 1780.83 681.067 1784.99 686.078C1787.35 688.923 1787.24 690.588 1784.55 692.826ZM1675.27 738.172C1674.21 730.714 1681.84 705.871 1688.18 696.113L1692.67 689.207L1693.66 695.991C1694.93 704.645 1690.04 720.967 1682.25 734.153C1676.73 743.484 1676.08 743.862 1675.27 738.172ZM1702.41 774.903C1702.41 772.693 1716.01 745.97 1721.08 738.236C1725.33 731.747 1737.2 730.322 1752.14 734.507C1759.02 736.435 1759 736.487 1746.61 747.992C1735.07 758.711 1702.41 778.599 1702.41 774.903Z" fill="white"/>
</svg>
